<?xml version="1.0" standalone="no"?>
<!DOCTYPE svg PUBLIC "-//W3C//DTD SVG 1.1//EN" "http://www.w3.org/Graphics/SVG/1.1/DTD/svg11.dtd">
<svg width="641" height="501.09858177226778" version="1.1" xmlns="http://www.w3.org/2000/svg">
  <title>30 by 20 sigma maze</title>
  <desc>30 by 20 sigma maze generated by The Maze Generator Website (https://www.mazegenerator.net/).</desc>
  <g fill="none" stroke="#000000" stroke-width="2" stroke-linecap="round" stroke-linejoin="round">
    <polyline points="9,38.373066958946431 2,26.248711305964292 9,14.124355652982152 23,14.124355652982152 30,2.0000000000000107 44,2.0000000000000107 51,14.124355652982152 65,14.124355652982152 72,26.248711305964292" />
    <polyline points="65,14.124355652982152 72,2.0000000000000107 86,2.0000000000000107 93,14.124355652982152 107,14.124355652982152 114,26.248711305964292" />
    <polyline points="107,14.124355652982152 114,2.0000000000000107 128,2.0000000000000107 135,14.124355652982152 149,14.124355652982152 156,26.248711305964292" />
    <polyline points="149,14.124355652982152 156,2.0000000000000107 170,2.0000000000000107 177,14.124355652982152 170,26.248711305964292" />
    <polyline points="177,14.124355652982152 191,14.124355652982152 198,2.0000000000000107 212,2.0000000000000107 219,14.124355652982152 233,14.124355652982152 240,2.0000000000000107 254,2.0000000000000107 261,14.124355652982152 275,14.124355652982152 282,26.248711305964292" />
    <polyline points="275,14.124355652982152 282,2.0000000000000107 296,2.0000000000000107 303,14.124355652982152" />
    <polyline points="324,26.248711305964292 317,14.124355652982152 324,2.0000000000000107 338,2.0000000000000107 345,14.124355652982152 359,14.124355652982152 366,2.0000000000000107 380,2.0000000000000107 387,14.124355652982152 380,26.248711305964292" />
    <polyline points="387,14.124355652982152 401,14.124355652982152 408,2.0000000000000107 422,2.0000000000000107 429,14.124355652982152 443,14.124355652982152 450,26.248711305964292" />
    <polyline points="443,14.124355652982152 450,2.0000000000000107 464,2.0000000000000107 471,14.124355652982152 485,14.124355652982152 492,2.0000000000000107 506,2.0000000000000107 513,14.124355652982152 527,14.124355652982152 534,2.0000000000000107 548,2.0000000000000107 555,14.124355652982152 569,14.124355652982152 576,26.248711305964292" />
    <polyline points="569,14.124355652982152 576,2.0000000000000107 590,2.0000000000000107 597,14.124355652982152 611,14.124355652982152 618,26.248711305964292" />
    <polyline points="611,14.124355652982152 618,2.0000000000000107 632,2.0000000000000107 639,14.124355652982152 632,26.248711305964292" />
    <polyline points="9,62.621778264910709 2,50.49742261192857 9,38.373066958946431 23,38.373066958946431 30,26.248711305964292 44,26.248711305964292" />
    <line x1="44" y1="50.49742261192857" x2="51" y2="38.373066958946431" />
    <line x1="65" y1="38.373066958946431" x2="72" y2="50.49742261192857" />
    <polyline points="86,26.248711305964292 93,38.373066958946431 86,50.49742261192857" />
    <polyline points="93,38.373066958946431 107,38.373066958946431 114,26.248711305964292" />
    <polyline points="128,26.248711305964292 135,38.373066958946431 128,50.49742261192857" />
    <line x1="149" y1="38.373066958946431" x2="156" y2="26.248711305964292" />
    <polyline points="170,26.248711305964292 177,38.373066958946431 170,50.49742261192857" />
    <polyline points="191,38.373066958946431 198,26.248711305964292 212,26.248711305964292 219,38.373066958946431 212,50.49742261192857" />
    <polyline points="219,38.373066958946431 233,38.373066958946431 240,50.49742261192857" />
    <polyline points="233,38.373066958946431 240,26.248711305964292 254,26.248711305964292 261,38.373066958946431 275,38.373066958946431 282,50.49742261192857" />
    <polyline points="296,26.248711305964292 303,38.373066958946431 296,50.49742261192857" />
    <polyline points="317,38.373066958946431 324,26.248711305964292 338,26.248711305964292 345,38.373066958946431 359,38.373066958946431 366,50.49742261192857" />
    <line x1="366" y1="26.248711305964292" x2="380" y2="26.248711305964292" />
    <polyline points="380,50.49742261192857 387,38.373066958946431 401,38.373066958946431 408,50.49742261192857" />
    <polyline points="401,38.373066958946431 408,26.248711305964292 422,26.248711305964292 429,38.373066958946431" />
    <polyline points="450,50.49742261192857 443,38.373066958946431 450,26.248711305964292 464,26.248711305964292 471,38.373066958946431" />
    <polyline points="492,50.49742261192857 485,38.373066958946431 492,26.248711305964292 506,26.248711305964292 513,38.373066958946431 506,50.49742261192857" />
    <polyline points="513,38.373066958946431 527,38.373066958946431 534,26.248711305964292" />
    <polyline points="548,26.248711305964292 555,38.373066958946431 548,50.49742261192857" />
    <polyline points="555,38.373066958946431 569,38.373066958946431 576,50.49742261192857" />
    <polyline points="590,26.248711305964292 597,38.373066958946431 590,50.49742261192857" />
    <polyline points="597,38.373066958946431 611,38.373066958946431 618,50.49742261192857" />
    <polyline points="632,26.248711305964292 639,38.373066958946431 632,50.49742261192857" />
    <polyline points="9,86.870489570875 2,74.746133917892848 9,62.621778264910709" />
    <polyline points="30,74.746133917892848 23,62.621778264910709 30,50.49742261192857 44,50.49742261192857 51,62.621778264910709" />
    <polyline points="72,74.746133917892848 65,62.621778264910709 72,50.49742261192857 86,50.49742261192857" />
    <polyline points="86,74.746133917892848 93,62.621778264910709 107,62.621778264910709" />
    <polyline points="114,50.49742261192857 128,50.49742261192857 135,62.621778264910709 149,62.621778264910709 156,50.49742261192857 170,50.49742261192857 177,62.621778264910709" />
    <polyline points="198,74.746133917892848 191,62.621778264910709 198,50.49742261192857" />
    <polyline points="212,74.746133917892848 219,62.621778264910709 233,62.621778264910709" />
    <polyline points="240,50.49742261192857 254,50.49742261192857 261,62.621778264910709 254,74.746133917892848" />
    <line x1="275" y1="62.621778264910709" x2="282" y2="74.746133917892848" />
    <polyline points="282,50.49742261192857 296,50.49742261192857 303,62.621778264910709 296,74.746133917892848" />
    <line x1="303" y1="62.621778264910709" x2="317" y2="62.621778264910709" />
    <polyline points="324,50.49742261192857 338,50.49742261192857 345,62.621778264910709 338,74.746133917892848" />
    <line x1="345" y1="62.621778264910709" x2="359" y2="62.621778264910709" />
    <polyline points="380,74.746133917892848 387,62.621778264910709 401,62.621778264910709" />
    <polyline points="408,50.49742261192857 422,50.49742261192857 429,62.621778264910709 422,74.746133917892848" />
    <polyline points="450,74.746133917892848 443,62.621778264910709 450,50.49742261192857" />
    <polyline points="464,50.49742261192857 471,62.621778264910709 464,74.746133917892848" />
    <polyline points="471,62.621778264910709 485,62.621778264910709 492,74.746133917892848" />
    <line x1="485" y1="62.621778264910709" x2="492" y2="50.49742261192857" />
    <polyline points="506,74.746133917892848 513,62.621778264910709 527,62.621778264910709 534,74.746133917892848" />
    <polyline points="527,62.621778264910709 534,50.49742261192857 548,50.49742261192857" />
    <line x1="548" y1="74.746133917892848" x2="555" y2="62.621778264910709" />
    <polyline points="576,74.746133917892848 569,62.621778264910709 576,50.49742261192857 590,50.49742261192857" />
    <polyline points="590,74.746133917892848 597,62.621778264910709 611,62.621778264910709" />
    <polyline points="618,50.49742261192857 632,50.49742261192857 639,62.621778264910709 632,74.746133917892848" />
    <polyline points="9,111.11920087683929 2,98.994845223857141 9,86.870489570875 23,86.870489570875 30,98.994845223857141" />
    <polyline points="30,74.746133917892848 44,74.746133917892848 51,86.870489570875 65,86.870489570875 72,98.994845223857141" />
    <line x1="72" y1="74.746133917892848" x2="86" y2="74.746133917892848" />
    <polyline points="86,98.994845223857141 93,86.870489570875 107,86.870489570875 114,74.746133917892848 128,74.746133917892848 135,86.870489570875 128,98.994845223857141" />
    <polyline points="156,98.994845223857141 149,86.870489570875 156,74.746133917892848 170,74.746133917892848 177,86.870489570875 170,98.994845223857141" />
    <polyline points="177,86.870489570875 191,86.870489570875 198,74.746133917892848 212,74.746133917892848 219,86.870489570875 212,98.994845223857141" />
    <line x1="219" y1="86.870489570875" x2="233" y2="86.870489570875" />
    <polyline points="240,74.746133917892848 254,74.746133917892848 261,86.870489570875 254,98.994845223857141" />
    <polyline points="261,86.870489570875 275,86.870489570875 282,98.994845223857141" />
    <line x1="282" y1="74.746133917892848" x2="296" y2="74.746133917892848" />
    <polyline points="296,98.994845223857141 303,86.870489570875 317,86.870489570875 324,74.746133917892848 338,74.746133917892848" />
    <polyline points="338,98.994845223857141 345,86.870489570875 359,86.870489570875 366,74.746133917892848 380,74.746133917892848 387,86.870489570875 401,86.870489570875" />
    <polyline points="408,74.746133917892848 422,74.746133917892848 429,86.870489570875 422,98.994845223857141" />
    <polyline points="429,86.870489570875 443,86.870489570875 450,98.994845223857141" />
    <line x1="464" y1="74.746133917892848" x2="471" y2="86.870489570875" />
    <line x1="485" y1="86.870489570875" x2="492" y2="98.994845223857141" />
    <polyline points="492,74.746133917892848 506,74.746133917892848 513,86.870489570875 506,98.994845223857141" />
    <line x1="527" y1="86.870489570875" x2="534" y2="98.994845223857141" />
    <polyline points="548,74.746133917892848 555,86.870489570875 548,98.994845223857141" />
    <line x1="555" y1="86.870489570875" x2="569" y2="86.870489570875" />
    <polyline points="576,74.746133917892848 590,74.746133917892848 597,86.870489570875 590,98.994845223857141" />
    <line x1="597" y1="86.870489570875" x2="611" y2="86.870489570875" />
    <polyline points="618,74.746133917892848 632,74.746133917892848 639,86.870489570875 632,98.994845223857141" />
    <polyline points="9,135.36791218280357 2,123.24355652982142 9,111.11920087683927" />
    <line x1="23" y1="111.11920087683927" x2="30" y2="123.24355652982142" />
    <polyline points="30,98.994845223857126 44,98.994845223857126 51,111.11920087683927 44,123.24355652982142" />
    <polyline points="51,111.11920087683927 65,111.11920087683927 72,98.994845223857126 86,98.994845223857126 93,111.11920087683927" />
    <polyline points="114,123.24355652982142 107,111.11920087683927 114,98.994845223857126" />
    <polyline points="128,123.24355652982142 135,111.11920087683927 149,111.11920087683927 156,98.994845223857126" />
    <polyline points="170,98.994845223857126 177,111.11920087683927 170,123.24355652982142" />
    <polyline points="198,123.24355652982142 191,111.11920087683927 198,98.994845223857126" />
    <polyline points="212,123.24355652982142 219,111.11920087683927 233,111.11920087683927 240,123.24355652982142" />
    <polyline points="233,111.11920087683927 240,98.994845223857126 254,98.994845223857126 261,111.11920087683927 275,111.11920087683927" />
    <polyline points="282,98.994845223857126 296,98.994845223857126 303,111.11920087683927 296,123.24355652982142" />
    <polyline points="324,123.24355652982142 317,111.11920087683927 324,98.994845223857126 338,98.994845223857126" />
    <polyline points="345,111.11920087683927 359,111.11920087683927 366,123.24355652982142" />
    <polyline points="359,111.11920087683927 366,98.994845223857126 380,98.994845223857126 387,111.11920087683927 401,111.11920087683927 408,123.24355652982142" />
    <polyline points="401,111.11920087683927 408,98.994845223857126 422,98.994845223857126" />
    <line x1="422" y1="123.24355652982142" x2="429" y2="111.11920087683927" />
    <polyline points="443,111.11920087683927 450,98.994845223857126 464,98.994845223857126 471,111.11920087683927 464,123.24355652982142" />
    <polyline points="471,111.11920087683927 485,111.11920087683927 492,123.24355652982142" />
    <line x1="485" y1="111.11920087683927" x2="492" y2="98.994845223857126" />
    <polyline points="506,98.994845223857126 513,111.11920087683927 527,111.11920087683927" />
    <polyline points="534,98.994845223857126 548,98.994845223857126 555,111.11920087683927 548,123.24355652982142" />
    <polyline points="569,111.11920087683927 576,98.994845223857126 590,98.994845223857126" />
    <polyline points="590,123.24355652982142 597,111.11920087683927 611,111.11920087683927 618,123.24355652982142" />
    <line x1="611" y1="111.11920087683927" x2="618" y2="98.994845223857126" />
    <polyline points="632,98.994845223857126 639,111.11920087683927 632,123.24355652982142" />
    <polyline points="9,159.61662348876783 2,147.4922678357857 9,135.36791218280357" />
    <polyline points="30,147.4922678357857 23,135.36791218280357 30,123.24355652982142" />
    <polyline points="44,147.4922678357857 51,135.36791218280357 65,135.36791218280357 72,147.4922678357857" />
    <polyline points="65,135.36791218280357 72,123.24355652982142 86,123.24355652982142" />
    <polyline points="86,147.4922678357857 93,135.36791218280357 107,135.36791218280357 114,123.24355652982142 128,123.24355652982142 135,135.36791218280357" />
    <polyline points="156,147.4922678357857 149,135.36791218280357 156,123.24355652982142 170,123.24355652982142" />
    <polyline points="177,135.36791218280357 191,135.36791218280357 198,147.4922678357857" />
    <polyline points="191,135.36791218280357 198,123.24355652982142 212,123.24355652982142" />
    <line x1="212" y1="147.4922678357857" x2="219" y2="135.36791218280357" />
    <polyline points="240,147.4922678357857 233,135.36791218280357 240,123.24355652982142" />
    <polyline points="254,123.24355652982142 261,135.36791218280357 275,135.36791218280357 282,123.24355652982142 296,123.24355652982142 303,135.36791218280357 296,147.4922678357857" />
    <polyline points="303,135.36791218280357 317,135.36791218280357 324,147.4922678357857" />
    <polyline points="324,123.24355652982142 338,123.24355652982142 345,135.36791218280357 338,147.4922678357857" />
    <polyline points="345,135.36791218280357 359,135.36791218280357 366,147.4922678357857" />
    <line x1="366" y1="123.24355652982142" x2="380" y2="123.24355652982142" />
    <polyline points="380,147.4922678357857 387,135.36791218280357 401,135.36791218280357 408,147.4922678357857" />
    <line x1="401" y1="135.36791218280357" x2="408" y2="123.24355652982142" />
    <polyline points="422,123.24355652982142 429,135.36791218280357 422,147.4922678357857" />
    <polyline points="429,135.36791218280357 443,135.36791218280357 450,147.4922678357857" />
    <line x1="443" y1="135.36791218280357" x2="450" y2="123.24355652982142" />
    <polyline points="471,135.36791218280357 485,135.36791218280357 492,147.4922678357857" />
    <polyline points="492,123.24355652982142 506,123.24355652982142 513,135.36791218280357 506,147.4922678357857" />
    <polyline points="513,135.36791218280357 527,135.36791218280357 534,147.4922678357857" />
    <polyline points="527,135.36791218280357 534,123.24355652982142 548,123.24355652982142" />
    <polyline points="548,147.4922678357857 555,135.36791218280357 569,135.36791218280357 576,123.24355652982142 590,123.24355652982142 597,135.36791218280357 590,147.4922678357857" />
    <polyline points="597,135.36791218280357 611,135.36791218280357 618,147.4922678357857" />
    <polyline points="632,123.24355652982142 639,135.36791218280357 632,147.4922678357857" />
    <polyline points="9,183.86533479473212 2,171.74097914175 9,159.61662348876786" />
    <polyline points="30,171.74097914175 23,159.61662348876786 30,147.49226783578573 44,147.49226783578573" />
    <line x1="44" y1="171.74097914175" x2="51" y2="159.61662348876786" />
    <polyline points="65,159.61662348876786 72,147.49226783578573 86,147.49226783578573 93,159.61662348876786 86,171.74097914175" />
    <polyline points="114,171.74097914175 107,159.61662348876786 114,147.49226783578573 128,147.49226783578573 135,159.61662348876786 128,171.74097914175" />
    <polyline points="135,159.61662348876786 149,159.61662348876786 156,171.74097914175" />
    <polyline points="156,147.49226783578573 170,147.49226783578573 177,159.61662348876786 170,171.74097914175" />
    <line x1="191" y1="159.61662348876786" x2="198" y2="147.49226783578573" />
    <polyline points="212,147.49226783578573 219,159.61662348876786 212,171.74097914175" />
    <polyline points="219,159.61662348876786 233,159.61662348876786 240,171.74097914175" />
    <polyline points="240,147.49226783578573 254,147.49226783578573 261,159.61662348876786 254,171.74097914175" />
    <polyline points="261,159.61662348876786 275,159.61662348876786 282,171.74097914175" />
    <line x1="275" y1="159.61662348876786" x2="282" y2="147.49226783578573" />
    <line x1="296" y1="171.74097914175" x2="303" y2="159.61662348876786" />
    <line x1="317" y1="159.61662348876786" x2="324" y2="171.74097914175" />
    <polyline points="338,147.49226783578573 345,159.61662348876786 338,171.74097914175" />
    <line x1="345" y1="159.61662348876786" x2="359" y2="159.61662348876786" />
    <polyline points="366,147.49226783578573 380,147.49226783578573 387,159.61662348876786 380,171.74097914175" />
    <line x1="401" y1="159.61662348876786" x2="408" y2="171.74097914175" />
    <polyline points="422,147.49226783578573 429,159.61662348876786 422,171.74097914175" />
    <polyline points="443,159.61662348876786 450,147.49226783578573 464,147.49226783578573 471,159.61662348876786 464,171.74097914175" />
    <polyline points="471,159.61662348876786 485,159.61662348876786 492,147.49226783578573" />
    <polyline points="506,171.74097914175 513,159.61662348876786 527,159.61662348876786 534,171.74097914175" />
    <line x1="527" y1="159.61662348876786" x2="534" y2="147.49226783578573" />
    <line x1="548" y1="147.49226783578573" x2="555" y2="159.61662348876786" />
    <polyline points="576,171.74097914175 569,159.61662348876786 576,147.49226783578573" />
    <polyline points="590,171.74097914175 597,159.61662348876786 611,159.61662348876786 618,171.74097914175" />
    <polyline points="618,147.49226783578573 632,147.49226783578573 639,159.61662348876786 632,171.74097914175" />
    <polyline points="9,208.11404610069639 2,195.98969044771425 9,183.86533479473212" />
    <polyline points="30,195.98969044771425 23,183.86533479473212 30,171.74097914175" />
    <polyline points="44,171.74097914175 51,183.86533479473212 65,183.86533479473212 72,195.98969044771425" />
    <line x1="65" y1="183.86533479473212" x2="72" y2="171.74097914175" />
    <polyline points="93,183.86533479473212 107,183.86533479473212 114,195.98969044771425" />
    <line x1="107" y1="183.86533479473212" x2="114" y2="171.74097914175" />
    <line x1="128" y1="195.98969044771425" x2="135" y2="183.86533479473212" />
    <polyline points="156,195.98969044771425 149,183.86533479473212 156,171.74097914175" />
    <polyline points="170,171.74097914175 177,183.86533479473212 191,183.86533479473212 198,171.74097914175 212,171.74097914175" />
    <polyline points="212,195.98969044771425 219,183.86533479473212 233,183.86533479473212 240,195.98969044771425" />
    <line x1="233" y1="183.86533479473212" x2="240" y2="171.74097914175" />
    <polyline points="254,195.98969044771425 261,183.86533479473212 275,183.86533479473212 282,195.98969044771425" />
    <polyline points="282,171.74097914175 296,171.74097914175 303,183.86533479473212 296,195.98969044771425" />
    <polyline points="317,183.86533479473212 324,171.74097914175 338,171.74097914175" />
    <polyline points="338,195.98969044771425 345,183.86533479473212 359,183.86533479473212 366,171.74097914175 380,171.74097914175 387,183.86533479473212 380,195.98969044771425" />
    <polyline points="408,195.98969044771425 401,183.86533479473212 408,171.74097914175 422,171.74097914175 429,183.86533479473212 443,183.86533479473212 450,171.74097914175" />
    <polyline points="464,171.74097914175 471,183.86533479473212 464,195.98969044771425" />
    <polyline points="471,183.86533479473212 485,183.86533479473212 492,195.98969044771425" />
    <polyline points="492,171.74097914175 506,171.74097914175 513,183.86533479473212 506,195.98969044771425" />
    <line x1="527" y1="183.86533479473212" x2="534" y2="195.98969044771425" />
    <polyline points="534,171.74097914175 548,171.74097914175 555,183.86533479473212 569,183.86533479473212 576,195.98969044771425" />
    <polyline points="569,183.86533479473212 576,171.74097914175 590,171.74097914175" />
    <line x1="590" y1="195.98969044771425" x2="597" y2="183.86533479473212" />
    <line x1="611" y1="183.86533479473212" x2="618" y2="171.74097914175" />
    <polyline points="632,171.74097914175 639,183.86533479473212 632,195.98969044771425" />
    <polyline points="9,232.36275740666068 2,220.23840175367855 9,208.11404610069641 23,208.11404610069641 30,220.23840175367855" />
    <line x1="30" y1="195.98969044771428" x2="44" y2="195.98969044771428" />
    <polyline points="44,220.23840175367855 51,208.11404610069641 65,208.11404610069641 72,220.23840175367855" />
    <polyline points="65,208.11404610069641 72,195.98969044771428 86,195.98969044771428" />
    <polyline points="93,208.11404610069641 107,208.11404610069641 114,220.23840175367855" />
    <line x1="107" y1="208.11404610069641" x2="114" y2="195.98969044771428" />
    <polyline points="128,195.98969044771428 135,208.11404610069641 149,208.11404610069641 156,220.23840175367855" />
    <polyline points="156,195.98969044771428 170,195.98969044771428 177,208.11404610069641 170,220.23840175367855" />
    <polyline points="177,208.11404610069641 191,208.11404610069641 198,195.98969044771428 212,195.98969044771428 219,208.11404610069641 212,220.23840175367855" />
    <line x1="233" y1="208.11404610069641" x2="240" y2="220.23840175367855" />
    <polyline points="240,195.98969044771428 254,195.98969044771428 261,208.11404610069641" />
    <line x1="275" y1="208.11404610069641" x2="282" y2="220.23840175367855" />
    <polyline points="296,195.98969044771428 303,208.11404610069641 296,220.23840175367855" />
    <polyline points="303,208.11404610069641 317,208.11404610069641 324,220.23840175367855" />
    <polyline points="317,208.11404610069641 324,195.98969044771428 338,195.98969044771428" />
    <polyline points="345,208.11404610069641 359,208.11404610069641 366,220.23840175367855" />
    <line x1="359" y1="208.11404610069641" x2="366" y2="195.98969044771428" />
    <polyline points="380,195.98969044771428 387,208.11404610069641 380,220.23840175367855" />
    <polyline points="387,208.11404610069641 401,208.11404610069641 408,220.23840175367855" />
    <polyline points="422,195.98969044771428 429,208.11404610069641 422,220.23840175367855" />
    <polyline points="429,208.11404610069641 443,208.11404610069641 450,220.23840175367855" />
    <polyline points="450,195.98969044771428 464,195.98969044771428 471,208.11404610069641 464,220.23840175367855" />
    <line x1="485" y1="208.11404610069641" x2="492" y2="220.23840175367855" />
    <polyline points="506,195.98969044771428 513,208.11404610069641 527,208.11404610069641 534,195.98969044771428 548,195.98969044771428 555,208.11404610069641 569,208.11404610069641 576,220.23840175367855" />
    <polyline points="590,195.98969044771428 597,208.11404610069641 611,208.11404610069641 618,220.23840175367855" />
    <polyline points="611,208.11404610069641 618,195.98969044771428 632,195.98969044771428 639,208.11404610069641 632,220.23840175367855" />
    <polyline points="9,256.61146871262497 2,244.48711305964284 9,232.36275740666071" />
    <line x1="23" y1="232.36275740666071" x2="30" y2="244.48711305964284" />
    <line x1="30" y1="220.23840175367857" x2="44" y2="220.23840175367857" />
    <line x1="44" y1="244.48711305964284" x2="51" y2="232.36275740666071" />
    <polyline points="65,232.36275740666071 72,220.23840175367857 86,220.23840175367857" />
    <polyline points="86,244.48711305964284 93,232.36275740666071 107,232.36275740666071 114,220.23840175367857 128,220.23840175367857" />
    <polyline points="128,244.48711305964284 135,232.36275740666071 149,232.36275740666071 156,220.23840175367857" />
    <polyline points="170,220.23840175367857 177,232.36275740666071 170,244.48711305964284" />
    <polyline points="198,244.48711305964284 191,232.36275740666071 198,220.23840175367857" />
    <polyline points="212,220.23840175367857 219,232.36275740666071 212,244.48711305964284" />
    <polyline points="240,244.48711305964284 233,232.36275740666071 240,220.23840175367857 254,220.23840175367857 261,232.36275740666071 275,232.36275740666071 282,244.48711305964284" />
    <line x1="282" y1="220.23840175367857" x2="296" y2="220.23840175367857" />
    <line x1="296" y1="244.48711305964284" x2="303" y2="232.36275740666071" />
    <polyline points="324,244.48711305964284 317,232.36275740666071 324,220.23840175367857 338,220.23840175367857 345,232.36275740666071 359,232.36275740666071 366,244.48711305964284" />
    <line x1="359" y1="232.36275740666071" x2="366" y2="220.23840175367857" />
    <polyline points="380,220.23840175367857 387,232.36275740666071 380,244.48711305964284" />
    <polyline points="387,232.36275740666071 401,232.36275740666071 408,244.48711305964284" />
    <polyline points="408,220.23840175367857 422,220.23840175367857 429,232.36275740666071 422,244.48711305964284" />
    <line x1="443" y1="232.36275740666071" x2="450" y2="220.23840175367857" />
    <polyline points="464,220.23840175367857 471,232.36275740666071 464,244.48711305964284" />
    <polyline points="492,244.48711305964284 485,232.36275740666071 492,220.23840175367857 506,220.23840175367857 513,232.36275740666071 527,232.36275740666071 534,244.48711305964284" />
    <polyline points="527,232.36275740666071 534,220.23840175367857 548,220.23840175367857" />
    <polyline points="555,232.36275740666071 569,232.36275740666071 576,220.23840175367857 590,220.23840175367857" />
    <polyline points="597,232.36275740666071 611,232.36275740666071 618,244.48711305964284" />
    <line x1="611" y1="232.36275740666071" x2="618" y2="220.23840175367857" />
    <polyline points="632,220.23840175367857 639,232.36275740666071 632,244.48711305964284" />
    <polyline points="9,280.86018001858923 2,268.73582436560707 9,256.61146871262491" />
    <line x1="23" y1="256.61146871262491" x2="30" y2="268.73582436560707" />
    <polyline points="30,244.48711305964278 44,244.48711305964278 51,256.61146871262491 44,268.73582436560707" />
    <polyline points="72,268.73582436560707 65,256.61146871262491 72,244.48711305964278 86,244.48711305964278 93,256.61146871262491" />
    <polyline points="107,256.61146871262491 114,244.48711305964278 128,244.48711305964278 135,256.61146871262491 149,256.61146871262491 156,268.73582436560707" />
    <polyline points="149,256.61146871262491 156,244.48711305964278 170,244.48711305964278" />
    <polyline points="170,268.73582436560707 177,256.61146871262491 191,256.61146871262491 198,268.73582436560707" />
    <line x1="191" y1="256.61146871262491" x2="198" y2="244.48711305964278" />
    <polyline points="212,244.48711305964278 219,256.61146871262491 212,268.73582436560707" />
    <polyline points="233,256.61146871262491 240,244.48711305964278 254,244.48711305964278 261,256.61146871262491 254,268.73582436560707" />
    <polyline points="275,256.61146871262491 282,244.48711305964278 296,244.48711305964278" />
    <polyline points="296,268.73582436560707 303,256.61146871262491 317,256.61146871262491 324,244.48711305964278" />
    <polyline points="338,244.48711305964278 345,256.61146871262491 338,268.73582436560707" />
    <polyline points="345,256.61146871262491 359,256.61146871262491 366,268.73582436560707" />
    <polyline points="380,244.48711305964278 387,256.61146871262491 380,268.73582436560707" />
    <line x1="401" y1="256.61146871262491" x2="408" y2="268.73582436560707" />
    <polyline points="422,244.48711305964278 429,256.61146871262491 422,268.73582436560707" />
    <polyline points="429,256.61146871262491 443,256.61146871262491 450,268.73582436560707" />
    <polyline points="443,256.61146871262491 450,244.48711305964278 464,244.48711305964278 471,256.61146871262491 464,268.73582436560707" />
    <polyline points="492,268.73582436560707 485,256.61146871262491 492,244.48711305964278" />
    <polyline points="506,244.48711305964278 513,256.61146871262491 506,268.73582436560707" />
    <line x1="527" y1="256.61146871262491" x2="534" y2="268.73582436560707" />
    <polyline points="534,244.48711305964278 548,244.48711305964278 555,256.61146871262491 569,256.61146871262491 576,268.73582436560707" />
    <polyline points="569,256.61146871262491 576,244.48711305964278 590,244.48711305964278 597,256.61146871262491 611,256.61146871262491 618,268.73582436560707" />
    <polyline points="632,244.48711305964278 639,256.61146871262491 632,268.73582436560707" />
    <polyline points="9,305.10889132455355 2,292.98453567157139 9,280.86018001858923" />
    <polyline points="30,292.98453567157139 23,280.86018001858923 30,268.73582436560707" />
    <polyline points="44,268.73582436560707 51,280.86018001858923 44,292.98453567157139" />
    <polyline points="51,280.86018001858923 65,280.86018001858923 72,292.98453567157139" />
    <polyline points="86,268.73582436560707 93,280.86018001858923 86,292.98453567157139" />
    <polyline points="93,280.86018001858923 107,280.86018001858923 114,292.98453567157139" />
    <polyline points="107,280.86018001858923 114,268.73582436560707 128,268.73582436560707" />
    <polyline points="128,292.98453567157139 135,280.86018001858923 149,280.86018001858923 156,292.98453567157139" />
    <line x1="149" y1="280.86018001858923" x2="156" y2="268.73582436560707" />
    <line x1="170" y1="292.98453567157139" x2="177" y2="280.86018001858923" />
    <polyline points="198,292.98453567157139 191,280.86018001858923 198,268.73582436560707" />
    <polyline points="212,268.73582436560707 219,280.86018001858923 212,292.98453567157139" />
    <polyline points="219,280.86018001858923 233,280.86018001858923 240,292.98453567157139" />
    <line x1="233" y1="280.86018001858923" x2="240" y2="268.73582436560707" />
    <polyline points="254,268.73582436560707 261,280.86018001858923 275,280.86018001858923 282,268.73582436560707 296,268.73582436560707" />
    <polyline points="296,292.98453567157139 303,280.86018001858923 317,280.86018001858923 324,268.73582436560707 338,268.73582436560707 345,280.86018001858923" />
    <polyline points="359,280.86018001858923 366,268.73582436560707 380,268.73582436560707" />
    <polyline points="380,292.98453567157139 387,280.86018001858923 401,280.86018001858923 408,268.73582436560707 422,268.73582436560707" />
    <line x1="422" y1="292.98453567157139" x2="429" y2="280.86018001858923" />
    <polyline points="450,292.98453567157139 443,280.86018001858923 450,268.73582436560707" />
    <polyline points="464,268.73582436560707 471,280.86018001858923 485,280.86018001858923 492,292.98453567157139" />
    <polyline points="506,268.73582436560707 513,280.86018001858923 506,292.98453567157139" />
    <line x1="513" y1="280.86018001858923" x2="527" y2="280.86018001858923" />
    <polyline points="534,268.73582436560707 548,268.73582436560707 555,280.86018001858923 569,280.86018001858923 576,292.98453567157139" />
    <polyline points="590,268.73582436560707 597,280.86018001858923 590,292.98453567157139" />
    <polyline points="611,280.86018001858923 618,268.73582436560707 632,268.73582436560707 639,280.86018001858923 632,292.98453567157139" />
    <polyline points="9,329.35760263051787 2,317.23324697753571 9,305.10889132455355" />
    <polyline points="30,317.23324697753571 23,305.10889132455355 30,292.98453567157139" />
    <line x1="44" y1="317.23324697753571" x2="51" y2="305.10889132455355" />
    <polyline points="72,317.23324697753571 65,305.10889132455355 72,292.98453567157139 86,292.98453567157139" />
    <polyline points="93,305.10889132455355 107,305.10889132455355 114,317.23324697753571" />
    <line x1="107" y1="305.10889132455355" x2="114" y2="292.98453567157139" />
    <polyline points="128,317.23324697753571 135,305.10889132455355 149,305.10889132455355 156,317.23324697753571" />
    <polyline points="156,292.98453567157139 170,292.98453567157139 177,305.10889132455355" />
    <polyline points="198,317.23324697753571 191,305.10889132455355 198,292.98453567157139 212,292.98453567157139" />
    <polyline points="212,317.23324697753571 219,305.10889132455355 233,305.10889132455355 240,317.23324697753571" />
    <polyline points="240,292.98453567157139 254,292.98453567157139 261,305.10889132455355" />
    <polyline points="282,317.23324697753571 275,305.10889132455355 282,292.98453567157139 296,292.98453567157139" />
    <line x1="296" y1="317.23324697753571" x2="303" y2="305.10889132455355" />
    <polyline points="324,317.23324697753571 317,305.10889132455355 324,292.98453567157139 338,292.98453567157139 345,305.10889132455355 338,317.23324697753571" />
    <polyline points="345,305.10889132455355 359,305.10889132455355 366,317.23324697753571" />
    <line x1="359" y1="305.10889132455355" x2="366" y2="292.98453567157139" />
    <line x1="380" y1="292.98453567157139" x2="387" y2="305.10889132455355" />
    <polyline points="408,317.23324697753571 401,305.10889132455355 408,292.98453567157139 422,292.98453567157139" />
    <polyline points="429,305.10889132455355 443,305.10889132455355 450,292.98453567157139 464,292.98453567157139 471,305.10889132455355 485,305.10889132455355" />
    <polyline points="492,292.98453567157139 506,292.98453567157139 513,305.10889132455355 506,317.23324697753571" />
    <polyline points="513,305.10889132455355 527,305.10889132455355 534,292.98453567157139 548,292.98453567157139 555,305.10889132455355 569,305.10889132455355" />
    <polyline points="576,292.98453567157139 590,292.98453567157139 597,305.10889132455355 590,317.23324697753571" />
    <polyline points="597,305.10889132455355 611,305.10889132455355 618,292.98453567157139" />
    <polyline points="632,292.98453567157139 639,305.10889132455355 632,317.23324697753571" />
    <polyline points="9,353.60631393648208 2,341.48195828349992 9,329.35760263051776" />
    <polyline points="30,341.48195828349992 23,329.35760263051776 30,317.2332469775356 44,317.2332469775356 51,329.35760263051776 65,329.35760263051776 72,341.48195828349992" />
    <polyline points="86,317.2332469775356 93,329.35760263051776 86,341.48195828349992" />
    <polyline points="114,341.48195828349992 107,329.35760263051776 114,317.2332469775356 128,317.2332469775356" />
    <line x1="128" y1="341.48195828349992" x2="135" y2="329.35760263051776" />
    <polyline points="156,341.48195828349992 149,329.35760263051776 156,317.2332469775356 170,317.2332469775356 177,329.35760263051776 191,329.35760263051776 198,317.2332469775356" />
    <polyline points="212,317.2332469775356 219,329.35760263051776 212,341.48195828349992" />
    <line x1="233" y1="329.35760263051776" x2="240" y2="341.48195828349992" />
    <polyline points="240,317.2332469775356 254,317.2332469775356 261,329.35760263051776 254,341.48195828349992" />
    <polyline points="261,329.35760263051776 275,329.35760263051776 282,317.2332469775356" />
    <polyline points="296,317.2332469775356 303,329.35760263051776 296,341.48195828349992" />
    <polyline points="324,341.48195828349992 317,329.35760263051776 324,317.2332469775356" />
    <polyline points="338,341.48195828349992 345,329.35760263051776 359,329.35760263051776 366,341.48195828349992" />
    <polyline points="366,317.2332469775356 380,317.2332469775356 387,329.35760263051776 380,341.48195828349992" />
    <polyline points="387,329.35760263051776 401,329.35760263051776 408,317.2332469775356 422,317.2332469775356 429,329.35760263051776 422,341.48195828349992" />
    <polyline points="450,341.48195828349992 443,329.35760263051776 450,317.2332469775356 464,317.2332469775356 471,329.35760263051776 485,329.35760263051776 492,317.2332469775356 506,317.2332469775356 513,329.35760263051776 506,341.48195828349992" />
    <polyline points="534,341.48195828349992 527,329.35760263051776 534,317.2332469775356" />
    <polyline points="548,317.2332469775356 555,329.35760263051776 548,341.48195828349992" />
    <polyline points="555,329.35760263051776 569,329.35760263051776 576,317.2332469775356 590,317.2332469775356 597,329.35760263051776" />
    <polyline points="618,341.48195828349992 611,329.35760263051776 618,317.2332469775356 632,317.2332469775356 639,329.35760263051776 632,341.48195828349992" />
    <polyline points="9,377.8550252424464 2,365.73066958946424 9,353.60631393648208 23,353.60631393648208" />
    <polyline points="30,341.48195828349992 44,341.48195828349992 51,353.60631393648208 44,365.73066958946424" />
    <polyline points="51,353.60631393648208 65,353.60631393648208 72,365.73066958946424" />
    <polyline points="72,341.48195828349992 86,341.48195828349992 93,353.60631393648208 86,365.73066958946424" />
    <polyline points="93,353.60631393648208 107,353.60631393648208 114,365.73066958946424" />
    <polyline points="128,341.48195828349992 135,353.60631393648208 128,365.73066958946424" />
    <polyline points="135,353.60631393648208 149,353.60631393648208 156,365.73066958946424" />
    <line x1="149" y1="353.60631393648208" x2="156" y2="341.48195828349992" />
    <polyline points="170,341.48195828349992 177,353.60631393648208 191,353.60631393648208 198,365.73066958946424" />
    <polyline points="191,353.60631393648208 198,341.48195828349992 212,341.48195828349992 219,353.60631393648208 233,353.60631393648208" />
    <polyline points="240,341.48195828349992 254,341.48195828349992 261,353.60631393648208 254,365.73066958946424" />
    <polyline points="282,365.73066958946424 275,353.60631393648208 282,341.48195828349992 296,341.48195828349992" />
    <polyline points="303,353.60631393648208 317,353.60631393648208 324,365.73066958946424" />
    <polyline points="317,353.60631393648208 324,341.48195828349992 338,341.48195828349992" />
    <polyline points="338,365.73066958946424 345,353.60631393648208 359,353.60631393648208 366,365.73066958946424" />
    <polyline points="380,341.48195828349992 387,353.60631393648208 401,353.60631393648208 408,365.73066958946424" />
    <polyline points="408,341.48195828349992 422,341.48195828349992 429,353.60631393648208 443,353.60631393648208 450,365.73066958946424" />
    <polyline points="464,341.48195828349992 471,353.60631393648208 464,365.73066958946424" />
    <polyline points="492,365.73066958946424 485,353.60631393648208 492,341.48195828349992" />
    <polyline points="506,365.73066958946424 513,353.60631393648208 527,353.60631393648208 534,341.48195828349992 548,341.48195828349992" />
    <polyline points="548,365.73066958946424 555,353.60631393648208 569,353.60631393648208 576,365.73066958946424" />
    <polyline points="569,353.60631393648208 576,341.48195828349992 590,341.48195828349992 597,353.60631393648208 611,353.60631393648208 618,341.48195828349992" />
    <polyline points="632,341.48195828349992 639,353.60631393648208 632,365.73066958946424" />
    <polyline points="9,402.10373654841072 2,389.97938089542856 9,377.8550252424464 23,377.8550252424464 30,389.97938089542856" />
    <polyline points="30,365.73066958946424 44,365.73066958946424 51,377.8550252424464 44,389.97938089542856" />
    <line x1="51" y1="377.8550252424464" x2="65" y2="377.8550252424464" />
    <polyline points="86,365.73066958946424 93,377.8550252424464 86,389.97938089542856" />
    <line x1="107" y1="377.8550252424464" x2="114" y2="389.97938089542856" />
    <line x1="114" y1="365.73066958946424" x2="128" y2="365.73066958946424" />
    <line x1="128" y1="389.97938089542856" x2="135" y2="377.8550252424464" />
    <polyline points="156,389.97938089542856 149,377.8550252424464 156,365.73066958946424 170,365.73066958946424" />
    <polyline points="170,389.97938089542856 177,377.8550252424464 191,377.8550252424464 198,365.73066958946424" />
    <polyline points="212,365.73066958946424 219,377.8550252424464 212,389.97938089542856" />
    <polyline points="219,377.8550252424464 233,377.8550252424464 240,365.73066958946424 254,365.73066958946424 261,377.8550252424464 275,377.8550252424464 282,389.97938089542856" />
    <polyline points="282,365.73066958946424 296,365.73066958946424 303,377.8550252424464 317,377.8550252424464 324,389.97938089542856" />
    <polyline points="324,365.73066958946424 338,365.73066958946424 345,377.8550252424464 338,389.97938089542856" />
    <line x1="359" y1="377.8550252424464" x2="366" y2="389.97938089542856" />
    <line x1="366" y1="365.73066958946424" x2="380" y2="365.73066958946424" />
    <polyline points="380,389.97938089542856 387,377.8550252424464 401,377.8550252424464 408,365.73066958946424" />
    <polyline points="422,365.73066958946424 429,377.8550252424464 422,389.97938089542856" />
    <line x1="429" y1="377.8550252424464" x2="443" y2="377.8550252424464" />
    <polyline points="450,365.73066958946424 464,365.73066958946424 471,377.8550252424464 464,389.97938089542856" />
    <polyline points="471,377.8550252424464 485,377.8550252424464 492,389.97938089542856" />
    <polyline points="485,377.8550252424464 492,365.73066958946424 506,365.73066958946424 513,377.8550252424464 527,377.8550252424464 534,389.97938089542856" />
    <line x1="534" y1="365.73066958946424" x2="548" y2="365.73066958946424" />
    <polyline points="555,377.8550252424464 569,377.8550252424464 576,389.97938089542856" />
    <polyline points="576,365.73066958946424 590,365.73066958946424 597,377.8550252424464 611,377.8550252424464 618,365.73066958946424" />
    <polyline points="632,365.73066958946424 639,377.8550252424464 632,389.97938089542856" />
    <polyline points="9,426.35244785437493 2,414.22809220139277 9,402.10373654841061" />
    <polyline points="30,414.22809220139277 23,402.10373654841061 30,389.97938089542845" />
    <polyline points="44,389.97938089542845 51,402.10373654841061 44,414.22809220139277" />
    <polyline points="72,414.22809220139277 65,402.10373654841061 72,389.97938089542845 86,389.97938089542845 93,402.10373654841061 86,414.22809220139277" />
    <polyline points="93,402.10373654841061 107,402.10373654841061 114,414.22809220139277" />
    <polyline points="114,389.97938089542845 128,389.97938089542845 135,402.10373654841061 149,402.10373654841061 156,414.22809220139277" />
    <polyline points="170,389.97938089542845 177,402.10373654841061 170,414.22809220139277" />
    <polyline points="198,414.22809220139277 191,402.10373654841061 198,389.97938089542845" />
    <polyline points="212,389.97938089542845 219,402.10373654841061 233,402.10373654841061" />
    <polyline points="240,389.97938089542845 254,389.97938089542845 261,402.10373654841061 254,414.22809220139277" />
    <line x1="275" y1="402.10373654841061" x2="282" y2="414.22809220139277" />
    <line x1="282" y1="389.97938089542845" x2="296" y2="389.97938089542845" />
    <polyline points="296,414.22809220139277 303,402.10373654841061 317,402.10373654841061 324,414.22809220139277" />
    <line x1="317" y1="402.10373654841061" x2="324" y2="389.97938089542845" />
    <line x1="338" y1="389.97938089542845" x2="345" y2="402.10373654841061" />
    <polyline points="366,414.22809220139277 359,402.10373654841061 366,389.97938089542845" />
    <polyline points="380,389.97938089542845 387,402.10373654841061 401,402.10373654841061" />
    <polyline points="408,389.97938089542845 422,389.97938089542845 429,402.10373654841061 422,414.22809220139277" />
    <polyline points="450,414.22809220139277 443,402.10373654841061 450,389.97938089542845" />
    <polyline points="464,414.22809220139277 471,402.10373654841061 485,402.10373654841061 492,414.22809220139277" />
    <polyline points="506,389.97938089542845 513,402.10373654841061 506,414.22809220139277" />
    <polyline points="513,402.10373654841061 527,402.10373654841061 534,414.22809220139277" />
    <polyline points="534,389.97938089542845 548,389.97938089542845 555,402.10373654841061 548,414.22809220139277" />
    <polyline points="576,414.22809220139277 569,402.10373654841061 576,389.97938089542845 590,389.97938089542845 597,402.10373654841061 611,402.10373654841061 618,414.22809220139277" />
    <polyline points="611,402.10373654841061 618,389.97938089542845 632,389.97938089542845 639,402.10373654841061 632,414.22809220139277" />
    <polyline points="9,450.60115916033925 2,438.47680350735709 9,426.35244785437493" />
    <polyline points="30,438.47680350735709 23,426.35244785437493 30,414.22809220139277" />
    <polyline points="51,426.35244785437493 65,426.35244785437493 72,438.47680350735709" />
    <line x1="65" y1="426.35244785437493" x2="72" y2="414.22809220139277" />
    <line x1="86" y1="438.47680350735709" x2="93" y2="426.35244785437493" />
    <polyline points="107,426.35244785437493 114,414.22809220139277 128,414.22809220139277 135,426.35244785437493 149,426.35244785437493 156,438.47680350735709" />
    <polyline points="156,414.22809220139277 170,414.22809220139277 177,426.35244785437493 191,426.35244785437493 198,438.47680350735709" />
    <polyline points="191,426.35244785437493 198,414.22809220139277 212,414.22809220139277 219,426.35244785437493 233,426.35244785437493 240,438.47680350735709" />
    <polyline points="233,426.35244785437493 240,414.22809220139277 254,414.22809220139277" />
    <polyline points="254,438.47680350735709 261,426.35244785437493 275,426.35244785437493 282,438.47680350735709" />
    <polyline points="275,426.35244785437493 282,414.22809220139277 296,414.22809220139277" />
    <line x1="296" y1="438.47680350735709" x2="303" y2="426.35244785437493" />
    <polyline points="317,426.35244785437493 324,414.22809220139277 338,414.22809220139277 345,426.35244785437493 338,438.47680350735709" />
    <polyline points="345,426.35244785437493 359,426.35244785437493 366,438.47680350735709" />
    <polyline points="359,426.35244785437493 366,414.22809220139277 380,414.22809220139277 387,426.35244785437493 401,426.35244785437493 408,414.22809220139277 422,414.22809220139277 429,426.35244785437493 422,438.47680350735709" />
    <polyline points="429,426.35244785437493 443,426.35244785437493 450,438.47680350735709" />
    <polyline points="450,414.22809220139277 464,414.22809220139277 471,426.35244785437493 464,438.47680350735709" />
    <line x1="485" y1="426.35244785437493" x2="492" y2="438.47680350735709" />
    <line x1="492" y1="414.22809220139277" x2="506" y2="414.22809220139277" />
    <line x1="506" y1="438.47680350735709" x2="513" y2="426.35244785437493" />
    <polyline points="534,438.47680350735709 527,426.35244785437493 534,414.22809220139277" />
    <polyline points="548,414.22809220139277 555,426.35244785437493 548,438.47680350735709" />
    <polyline points="555,426.35244785437493 569,426.35244785437493 576,438.47680350735709" />
    <line x1="569" y1="426.35244785437493" x2="576" y2="414.22809220139277" />
    <polyline points="590,414.22809220139277 597,426.35244785437493 590,438.47680350735709" />
    <line x1="611" y1="426.35244785437493" x2="618" y2="414.22809220139277" />
    <polyline points="632,414.22809220139277 639,426.35244785437493 632,438.47680350735709" />
    <polyline points="9,474.84987046630357 2,462.72551481332141 9,450.60115916033925 23,450.60115916033925" />
    <polyline points="44,438.47680350735709 51,450.60115916033925 44,462.72551481332141" />
    <line x1="51" y1="450.60115916033925" x2="65" y2="450.60115916033925" />
    <polyline points="72,438.47680350735709 86,438.47680350735709 93,450.60115916033925 86,462.72551481332141" />
    <line x1="93" y1="450.60115916033925" x2="107" y2="450.60115916033925" />
    <polyline points="114,438.47680350735709 128,438.47680350735709 135,450.60115916033925 128,462.72551481332141" />
    <polyline points="156,462.72551481332141 149,450.60115916033925 156,438.47680350735709 170,438.47680350735709 177,450.60115916033925" />
    <line x1="191" y1="450.60115916033925" x2="198" y2="438.47680350735709" />
    <polyline points="212,438.47680350735709 219,450.60115916033925 212,462.72551481332141" />
    <polyline points="240,462.72551481332141 233,450.60115916033925 240,438.47680350735709 254,438.47680350735709" />
    <polyline points="261,450.60115916033925 275,450.60115916033925 282,462.72551481332141" />
    <polyline points="296,438.47680350735709 303,450.60115916033925 296,462.72551481332141" />
    <polyline points="303,450.60115916033925 317,450.60115916033925 324,462.72551481332141" />
    <line x1="317" y1="450.60115916033925" x2="324" y2="438.47680350735709" />
    <polyline points="338,438.47680350735709 345,450.60115916033925 359,450.60115916033925 366,462.72551481332141" />
    <polyline points="380,438.47680350735709 387,450.60115916033925 380,462.72551481332141" />
    <polyline points="387,450.60115916033925 401,450.60115916033925 408,462.72551481332141" />
    <line x1="401" y1="450.60115916033925" x2="408" y2="438.47680350735709" />
    <polyline points="422,462.72551481332141 429,450.60115916033925 443,450.60115916033925 450,462.72551481332141" />
    <polyline points="464,438.47680350735709 471,450.60115916033925 485,450.60115916033925 492,462.72551481332141" />
    <polyline points="485,450.60115916033925 492,438.47680350735709 506,438.47680350735709 513,450.60115916033925" />
    <polyline points="534,462.72551481332141 527,450.60115916033925 534,438.47680350735709" />
    <line x1="548" y1="462.72551481332141" x2="555" y2="450.60115916033925" />
    <polyline points="576,462.72551481332141 569,450.60115916033925 576,438.47680350735709" />
    <polyline points="590,438.47680350735709 597,450.60115916033925 611,450.60115916033925 618,462.72551481332141" />
    <line x1="611" y1="450.60115916033925" x2="618" y2="438.47680350735709" />
    <polyline points="632,438.47680350735709 639,450.60115916033925 632,462.72551481332141" />
    <polyline points="9,499.09858177226778 2,486.97422611928562 9,474.84987046630346" />
    <polyline points="30,486.97422611928562 23,474.84987046630346 30,462.7255148133213 44,462.7255148133213" />
    <polyline points="51,474.84987046630346 65,474.84987046630346 72,486.97422611928562" />
    <line x1="65" y1="474.84987046630346" x2="72" y2="462.7255148133213" />
    <polyline points="86,486.97422611928562 93,474.84987046630346 107,474.84987046630346 114,462.7255148133213 128,462.7255148133213 135,474.84987046630346" />
    <polyline points="156,486.97422611928562 149,474.84987046630346 156,462.7255148133213" />
    <polyline points="170,462.7255148133213 177,474.84987046630346 191,474.84987046630346 198,462.7255148133213 212,462.7255148133213 219,474.84987046630346 212,486.97422611928562" />
    <polyline points="233,474.84987046630346 240,462.7255148133213 254,462.7255148133213 261,474.84987046630346" />
    <polyline points="275,474.84987046630346 282,462.7255148133213 296,462.7255148133213" />
    <line x1="296" y1="486.97422611928562" x2="303" y2="474.84987046630346" />
    <polyline points="324,486.97422611928562 317,474.84987046630346 324,462.7255148133213 338,462.7255148133213 345,474.84987046630346" />
    <polyline points="366,486.97422611928562 359,474.84987046630346 366,462.7255148133213 380,462.7255148133213 387,474.84987046630346" />
    <line x1="401" y1="474.84987046630346" x2="408" y2="486.97422611928562" />
    <line x1="408" y1="462.7255148133213" x2="422" y2="462.7255148133213" />
    <line x1="422" y1="486.97422611928562" x2="429" y2="474.84987046630346" />
    <line x1="443" y1="474.84987046630346" x2="450" y2="486.97422611928562" />
    <line x1="450" y1="462.7255148133213" x2="464" y2="462.7255148133213" />
    <polyline points="471,474.84987046630346 485,474.84987046630346 492,486.97422611928562" />
    <polyline points="506,462.7255148133213 513,474.84987046630346 506,486.97422611928562" />
    <line x1="513" y1="474.84987046630346" x2="527" y2="474.84987046630346" />
    <polyline points="534,462.7255148133213 548,462.7255148133213 555,474.84987046630346 548,486.97422611928562" />
    <polyline points="569,474.84987046630346 576,462.7255148133213 590,462.7255148133213" />
    <polyline points="590,486.97422611928562 597,474.84987046630346 611,474.84987046630346 618,462.7255148133213" />
    <polyline points="632,462.7255148133213 639,474.84987046630346 632,486.97422611928562" />
    <polyline points="30,486.97422611928562 23,499.09858177226778 9,499.09858177226778" />
    <line x1="44" y1="486.97422611928562" x2="30" y2="486.97422611928562" />
    <polyline points="72,486.97422611928562 65,499.09858177226778 51,499.09858177226778 44,486.97422611928562" />
    <line x1="86" y1="486.97422611928562" x2="72" y2="486.97422611928562" />
    <polyline points="114,486.97422611928562 107,499.09858177226778 93,499.09858177226778 86,486.97422611928562" />
    <line x1="128" y1="486.97422611928562" x2="114" y2="486.97422611928562" />
    <polyline points="156,486.97422611928562 149,499.09858177226778 135,499.09858177226778 128,486.97422611928562" />
    <line x1="170" y1="486.97422611928562" x2="156" y2="486.97422611928562" />
    <polyline points="198,486.97422611928562 191,499.09858177226778 177,499.09858177226778 170,486.97422611928562" />
    <line x1="212" y1="486.97422611928562" x2="198" y2="486.97422611928562" />
    <polyline points="240,486.97422611928562 233,499.09858177226778 219,499.09858177226778 212,486.97422611928562" />
    <line x1="254" y1="486.97422611928562" x2="240" y2="486.97422611928562" />
    <polyline points="282,486.97422611928562 275,499.09858177226778 261,499.09858177226778 254,486.97422611928562" />
    <line x1="296" y1="486.97422611928562" x2="282" y2="486.97422611928562" />
    <polyline points="324,486.97422611928562 317,499.09858177226778 303,499.09858177226778 296,486.97422611928562" />
    <polyline points="366,486.97422611928562 359,499.09858177226778 345,499.09858177226778 338,486.97422611928562" />
    <line x1="380" y1="486.97422611928562" x2="366" y2="486.97422611928562" />
    <polyline points="408,486.97422611928562 401,499.09858177226778 387,499.09858177226778 380,486.97422611928562" />
    <line x1="422" y1="486.97422611928562" x2="408" y2="486.97422611928562" />
    <polyline points="450,486.97422611928562 443,499.09858177226778 429,499.09858177226778 422,486.97422611928562" />
    <line x1="464" y1="486.97422611928562" x2="450" y2="486.97422611928562" />
    <polyline points="492,486.97422611928562 485,499.09858177226778 471,499.09858177226778 464,486.97422611928562" />
    <line x1="506" y1="486.97422611928562" x2="492" y2="486.97422611928562" />
    <polyline points="534,486.97422611928562 527,499.09858177226778 513,499.09858177226778 506,486.97422611928562" />
    <line x1="548" y1="486.97422611928562" x2="534" y2="486.97422611928562" />
    <polyline points="576,486.97422611928562 569,499.09858177226778 555,499.09858177226778 548,486.97422611928562" />
    <line x1="590" y1="486.97422611928562" x2="576" y2="486.97422611928562" />
    <polyline points="618,486.97422611928562 611,499.09858177226778 597,499.09858177226778 590,486.97422611928562" />
    <line x1="632" y1="486.97422611928562" x2="618" y2="486.97422611928562" />
  </g>
</svg>
